HIERARCHY
ROOT Hips
{
	OFFSET -0.001795 -0.223333 0.028219
	CHANNELS 6 Xposition Yposition Zposition Zrotation Yrotation Xrotation 
	JOINT LeftUpLeg
	{
		OFFSET 0.069520 -0.091406 -0.006815
		CHANNELS 3 Zrotation Yrotation Xrotation
		JOINT LeftLeg
		{
			OFFSET 0.034277 -0.375199 -0.004496
			CHANNELS 3 Zrotation Yrotation Xrotation
			JOINT LeftFoot
			{
				OFFSET -0.013596 -0.397961 -0.043693
				CHANNELS 3 Zrotation Yrotation Xrotation
				JOINT LeftToe
				{
					OFFSET 0.026358 -0.055791 0.119288
					CHANNELS 3 Zrotation Yrotation Xrotation
					End Site
					{
						OFFSET 0.000000 0.000000 0.000000
					}
				}
			}
		}
	}
	JOINT RightUpLeg
	{
		OFFSET -0.067670 -0.090522 -0.004320
		CHANNELS 3 Zrotation Yrotation Xrotation
		JOINT RightLeg
		{
			OFFSET -0.038290 -0.382569 -0.008850
			CHANNELS 3 Zrotation Yrotation Xrotation
			JOINT RightFoot
			{
				OFFSET 0.015774 -0.398415 -0.042312
				CHANNELS 3 Zrotation Yrotation Xrotation
				JOINT RightToe
				{
					OFFSET -0.025372 -0.048144 0.123348
					CHANNELS 3 Zrotation Yrotation Xrotation
					End Site
					{
						OFFSET 0.000000 0.000000 0.000000
					}
				}
			}
		}
	}
	JOINT Spine
	{
		OFFSET -0.002533 0.108963 -0.026696
		CHANNELS 3 Zrotation Yrotation Xrotation
		JOINT Spine1
		{
			OFFSET 0.005487 0.135180 0.001092
			CHANNELS 3 Zrotation Yrotation Xrotation
			JOINT Spine2
			{
				OFFSET 0.001457 0.052922 0.025425
				CHANNELS 3 Zrotation Yrotation Xrotation
				JOINT Neck
				{
					OFFSET -0.002778 0.213870 -0.042857
					CHANNELS 3 Zrotation Yrotation Xrotation
					JOINT Head
					{
						OFFSET 0.005152 0.064970 0.051349
						CHANNELS 3 Zrotation Yrotation Xrotation
						End Site
						{
							OFFSET 0.000000 0.000000 0.000000
						}
					}
				}
				JOINT LeftShoulder
				{
					OFFSET 0.078845 0.121749 -0.034090
					CHANNELS 3 Zrotation Yrotation Xrotation
					JOINT LeftArm
					{
						OFFSET 0.090977 0.030469 -0.008868
						CHANNELS 3 Zrotation Yrotation Xrotation
						JOINT LeftForeArm
						{
							OFFSET 0.259612 -0.012772 -0.027456
							CHANNELS 3 Zrotation Yrotation Xrotation
							JOINT LeftHand
							{
								OFFSET 0.249234 0.008986 -0.001171
								CHANNELS 3 Zrotation Yrotation Xrotation
								End Site
								{
									OFFSET 0.000000 0.000000 0.000000
								}
							}
						}
					}
				}
				JOINT RightShoulder
				{
					OFFSET -0.081759 0.118833 -0.038615
					CHANNELS 3 Zrotation Yrotation Xrotation
					JOINT RightArm
					{
						OFFSET -0.096012 0.032551 -0.009143
						CHANNELS 3 Zrotation Yrotation Xrotation
						JOINT RightForeArm
						{
							OFFSET -0.253742 -0.013329 -0.021401
							CHANNELS 3 Zrotation Yrotation Xrotation
							JOINT RightHand
							{
								OFFSET -0.255298 0.007772 -0.005559
								CHANNELS 3 Zrotation Yrotation Xrotation
								End Site
								{
									OFFSET 0.000000 0.000000 0.000000
								}
							}
						}
					}
				}
			}
		}
	}
}
MOTION
Frames: 7
Frame Time: 0.050000
0.173864 0.952327 0.585960 0.727793 -17.841549 -4.375842 -0.202754 -0.037358 -0.470375 -2.357343 0.667134 13.005803 5.469955 11.880352 5.592541 0.000000 0.000000 0.000000 -2.792171 0.798949 -8.545441 0.269211 1.187136 16.512736 0.278286 -3.533565 5.944270 0.000000 0.000000 0.000000 6.841694 -1.411651 31.344952 -6.459311 1.898632 -25.840472 -3.716747 4.233168 33.205629 13.615515 -5.789915 -35.524923 0.000000 0.000000 0.000000 -14.979992 -16.891143 8.996799 -54.685836 -19.370658 -0.741985 -1.281814 -51.773869 4.950192 0.000000 0.000000 0.000000 27.482578 3.512001 -1.513576 56.481375 11.360216 -2.941840 17.222921 51.431032 10.641457 0.000000 0.000000 0.000000 
0.167160 0.943230 0.586438 0.875715 -17.866348 -5.551106 0.715009 -0.047776 -0.976034 -3.452368 1.188571 16.342650 5.748479 12.476725 3.439338 0.000000 0.000000 0.000000 -2.217821 0.913471 -9.617798 0.067194 1.722006 20.696894 -0.449008 -4.492164 5.017251 0.000000 0.000000 0.000000 7.029464 -1.426198 33.114635 -6.755484 1.983368 -25.169049 -3.995901 3.874918 33.072819 13.445876 -5.971549 -34.424314 0.000000 0.000000 0.000000 -14.603645 -18.089318 9.467578 -51.774906 -19.506347 -0.833275 3.882523 -55.088112 2.606386 0.000000 0.000000 0.000000 27.904610 4.606145 -0.901033 54.769364 13.232163 -1.997369 12.280186 54.827996 8.874320 0.000000 0.000000 0.000000 
0.160745 0.930611 0.587114 0.987472 -17.983804 -6.996603 1.783115 -0.092994 -2.280271 -4.842165 2.117804 21.447546 6.084024 13.202326 1.134392 0.000000 0.000000 0.000000 -1.998048 1.031157 -10.688652 0.482531 2.262600 25.585434 -1.555906 -5.278421 2.326377 0.000000 0.000000 0.000000 7.018273 -1.362425 35.115710 -6.683857 1.974950 -25.226050 -4.314474 3.876148 33.242043 13.440231 -6.038324 -34.187132 0.000000 0.000000 0.000000 -15.309150 -19.018373 9.997389 -48.241153 -19.889529 -0.932139 9.553591 -57.857441 -0.453606 0.000000 0.000000 0.000000 28.560641 5.187844 -0.509556 53.937406 15.496153 -0.974871 8.206342 57.808019 7.297816 0.000000 0.000000 0.000000 
0.155333 0.917235 0.587687 1.362952 -17.365272 -8.088496 2.264941 -0.152718 -3.618329 -5.675061 2.841871 25.453779 6.302615 13.704084 -1.900137 0.000000 0.000000 0.000000 -1.934388 1.153953 -11.833531 0.876477 2.673344 29.636472 -2.559623 -6.062233 -0.258006 0.000000 0.000000 0.000000 6.918244 -1.371948 36.166864 -7.370693 2.197342 -23.954693 -4.495135 2.835070 32.501739 13.593912 -6.167750 -34.210882 0.000000 0.000000 0.000000 -15.656236 -20.233270 10.697574 -45.906994 -19.894455 -0.968834 16.102559 -59.455849 -4.240616 0.000000 0.000000 0.000000 29.187975 6.108984 -0.210025 53.307590 17.088796 -0.074774 2.573498 59.467418 4.204179 0.000000 0.000000 0.000000 
0.150762 0.909889 0.588532 1.641078 -16.767187 -8.526438 2.422345 -0.186399 -4.296466 -5.972994 3.139156 27.346890 6.280208 13.625398 -3.448411 0.000000 0.000000 0.000000 -2.095611 1.211859 -12.491757 1.336147 2.836453 32.232397 -3.268387 -6.948651 -1.756614 0.000000 0.000000 0.000000 6.445206 -1.295374 36.374923 -7.758953 2.323774 -23.684138 -4.742021 2.898506 32.764476 13.773097 -6.144737 -34.612073 0.000000 0.000000 0.000000 -15.651944 -20.915044 10.942656 -44.882886 -20.597435 -0.746925 21.190145 -60.110539 -7.290330 0.000000 0.000000 0.000000 29.878387 6.338069 0.039141 53.779533 18.202142 0.417902 -0.855898 59.988013 2.473246 0.000000 0.000000 0.000000 
0.146884 0.913337 0.589942 1.911638 -16.616168 -8.019488 2.166861 -0.212328 -4.289652 -5.737233 2.859412 26.029815 6.003436 12.992326 -2.658254 0.000000 0.000000 0.000000 -2.350599 1.190609 -12.455178 1.421484 2.677334 31.487872 -3.107670 -6.722250 -1.466934 0.000000 0.000000 0.000000 5.569400 -1.078499 35.392250 -7.513330 2.245555 -23.867242 -5.050851 3.878008 33.000605 14.281406 -6.205162 -34.915009 0.000000 0.000000 0.000000 -15.867145 -20.865269 10.840026 -45.320379 -20.482874 -0.807714 21.803291 -60.561244 -7.756778 0.000000 0.000000 0.000000 30.754464 5.858506 0.021125 55.108808 17.909368 0.232334 -0.360325 60.221151 3.113497 0.000000 0.000000 0.000000 
0.143320 0.924408 0.591910 1.756479 -15.899908 -6.865275 1.831706 -0.226463 -3.952929 -4.843395 2.089904 22.906934 5.583633 12.063767 -0.311698 0.000000 0.000000 0.000000 -2.529545 1.117827 -11.901709 1.420032 2.151565 28.182567 -2.131053 -5.512944 0.495891 0.000000 0.000000 0.000000 5.121715 -1.084704 33.389421 -7.600498 2.285014 -23.297657 -5.067759 4.398185 32.722414 13.536029 -5.731953 -34.530948 0.000000 0.000000 0.000000 -16.229675 -19.972179 10.382515 -46.798553 -20.318980 -0.783798 19.087839 -58.977425 -6.007301 0.000000 0.000000 0.000000 31.147145 5.498276 0.030739 56.917156 16.799806 -0.258528 0.575297 58.617665 3.777541 0.000000 0.000000 0.000000 
